<?xml version="1.0" encoding="UTF-8" standalone="no"?>
<svg
   xmlns:dc="http://purl.org/dc/elements/1.1/"
   xmlns:cc="http://creativecommons.org/ns#"
   xmlns:rdf="http://www.w3.org/1999/02/22-rdf-syntax-ns#"
   xmlns:svg="http://www.w3.org/2000/svg"
   xmlns="http://www.w3.org/2000/svg"
   xmlns:xlink="http://www.w3.org/1999/xlink"
   xmlns:sodipodi="http://sodipodi.sourceforge.net/DTD/sodipodi-0.dtd"
   xmlns:inkscape="http://www.inkscape.org/namespaces/inkscape"
   aria-hidden="true"
   focusable="false"
   data-prefix="far"
   data-icon="hand-scissors"
   class="svg-inline--fa fa-hand-scissors fa-w-16"
   role="img"
   viewBox="0 0 512 512"
   id="svg2"
   version="1.1"
   inkscape:version="0.91 r13725"
   sodipodi:docname="hand-scissors-regular2.svg">
  <metadata
     id="metadata10">
    <rdf:RDF>
      <cc:Work
         rdf:about="">
        <dc:format>image/svg+xml</dc:format>
        <dc:type
           rdf:resource="http://purl.org/dc/dcmitype/StillImage" />
        <dc:title></dc:title>
      </cc:Work>
    </rdf:RDF>
  </metadata>
  <defs
     id="defs8" />
  <sodipodi:namedview
     pagecolor="#ffffff"
     bordercolor="#666666"
     borderopacity="1"
     objecttolerance="10"
     gridtolerance="10"
     guidetolerance="10"
     inkscape:pageopacity="0"
     inkscape:pageshadow="2"
     inkscape:window-width="1920"
     inkscape:window-height="1057"
     id="namedview6"
     showgrid="false"
     inkscape:zoom="0.4609375"
     inkscape:cx="256"
     inkscape:cy="256"
     inkscape:window-x="-8"
     inkscape:window-y="-8"
     inkscape:window-maximized="1"
     inkscape:current-layer="svg2" />
  <path
     style="color:#000000;font-style:normal;font-variant:normal;font-weight:normal;font-stretch:normal;font-size:medium;line-height:normal;font-family:sans-serif;text-indent:0;text-align:start;text-decoration:none;text-decoration-line:none;text-decoration-style:solid;text-decoration-color:#000000;letter-spacing:normal;word-spacing:normal;text-transform:none;direction:ltr;block-progression:tb;writing-mode:lr-tb;baseline-shift:baseline;text-anchor:start;white-space:normal;clip-rule:nonzero;display:inline;overflow:visible;visibility:visible;opacity:1;isolation:auto;mix-blend-mode:normal;color-interpolation:sRGB;color-interpolation-filters:linearRGB;solid-color:#000000;solid-opacity:1;fill-opacity:1;fill-rule:nonzero;stroke:none;stroke-width:1;stroke-linecap:butt;stroke-linejoin:miter;stroke-miterlimit:4;stroke-dasharray:none;stroke-dashoffset:0;stroke-opacity:1;color-rendering:auto;image-rendering:auto;shape-rendering:auto;text-rendering:auto;enable-background:accumulate"
     d="M 111.85547,25.017578 C 82.958639,25.77869 55.922413,43.219446 44.574219,71.513672 29.374356,109.40964 48.242541,152.44061 86.800781,167.2793 l 0.03125,0.0117 71.718749,16.99023 -86.695311,-8.43164 -0.02539,0 c -41.072037,0 -74.4999999,33.03725 -74.4999999,73.64062 0,40.60437 33.4279629,73.64063 74.4999999,73.64063 l 87.103512,0 c -3.42765,26.10539 8.85074,50.95843 30.3086,64.71094 -13.12755,42.78897 19.43557,86.15039 64.58789,86.15039 l 70,-0.0137 c 5.152,0 10.30741,-0.58766 15.3164,-1.74219 l 118.99805,-27.42578 c 30.58024,-7.04722 52.18555,-34.06751 52.18555,-65.04297 l 0,-205.70117 c 0,-24.02715 -13.12834,-46.30041 -34.25977,-58.12696 l -98,-54.851559 c -17.30692,-9.687836 -34.28802,-11.166179 -50.04492,-6.357422 -15.65633,4.778065 -30.08646,15.755607 -42.55469,30.9375 L 140.85938,30.033203 c -9.53388,-3.668657 -19.37163,-5.269329 -29.00391,-5.015625 z m 0.0234,0.998047 c 9.50406,-0.24939 19.21147,1.330329 28.62109,4.951172 l 145.26758,55.886719 0.22851,-0.28125 c 12.43222,-15.223049 26.81117,-26.152976 42.32227,-30.886719 15.5111,-4.733744 32.1616,-3.299727 49.26367,6.273437 l 98,54.853516 c 20.81857,11.65145 33.74805,33.59105 33.74805,57.25391 l 0,205.70117 c 0,30.51053 -21.2744,57.12357 -51.41016,64.06836 l -118.99804,27.42578 c -4.93501,1.13747 -10.0158,1.7168 -15.0918,1.7168 l -70,0.0137 c -44.63522,0 -76.76818,-42.92651 -63.54688,-85.20508 l 0.11524,-0.36719 -0.32422,-0.20508 c -21.4891,-13.60774 -33.76086,-38.46451 -30.11328,-64.51367 l 0.0801,-0.57031 -88.210942,0 c -40.535962,0 -73.4999999,-32.585 -73.4999999,-72.64063 0,-40.04812 32.9535389,-72.63005 73.4804689,-72.64062 l 93.970703,9.13867 0.16406,-0.98242 -78.806638,-18.66992 C 49.097942,151.68264 30.508745,109.26746 45.501953,71.886719 56.698759,43.969945 83.366704,26.763795 111.87891,26.015625 Z m 157.45117,170.703125 0,11.63281 c 0,8.56681 -6.93319,15.5 -15.5,15.5 l -182.000002,0 c -8.715643,0 -15.318573,3.20361 -19.71289,8.01953 -4.394318,4.81593 -6.584391,11.22194 -6.587891,17.6211 -0.0035,6.39916 2.179534,12.80498 6.572265,17.62109 4.392732,4.81611 10.999318,8.01953 19.728516,8.01953 l 182.000002,0 c 8.56681,0 15.5,6.93319 15.5,15.5 l 0,6.85547 c 0,8.56681 -6.93319,15.5 -15.5,15.5 l -28,0 c -6.4018,0 -11.26733,2.34494 -14.50391,5.875 -3.23658,3.53007 -4.84919,8.22274 -4.85156,12.9082 -0.002,4.68547 1.6043,9.37797 4.83984,12.90821 3.23555,3.53023 8.10476,5.875 14.51563,5.875 l 28,0 c 8.56681,0 15.5,6.93319 15.5,15.5 l 0,6.85742 c 0,8.56681 -6.93319,15.5 -15.5,15.5 -6.40131,0 -11.26735,2.34494 -14.50391,5.875 -3.23655,3.53006 -4.849,8.22274 -4.85156,12.9082 -0.003,4.68546 1.6044,9.37796 4.83984,12.90821 3.23544,3.53024 8.10451,5.875 14.51563,5.875 l 0,-1 c -6.16889,0 -10.72903,-2.22472 -13.77735,-5.55079 -3.04831,-3.32606 -4.58056,-7.77613 -4.57812,-12.23242 0.002,-4.45629 1.5382,-8.90617 4.58789,-12.23242 3.04969,-3.32625 7.60889,-5.55078 13.76758,-5.55078 9.10719,0 16.5,-7.39281 16.5,-16.5 l 0,-6.85742 c 0,-9.10719 -7.39281,-16.5 -16.5,-16.5 l -28,0 c -6.16863,0 -10.72892,-2.22471 -13.77735,-5.55078 -3.04842,-3.32608 -4.58038,-7.77614 -4.57812,-12.23243 0.002,-4.45628 1.53819,-8.90617 4.58789,-12.23242 3.0497,-3.32624 7.60838,-5.55078 13.76758,-5.55078 l 28,0 c 9.10719,0 16.5,-7.39281 16.5,-16.5 l 0,-6.85547 c 0,-9.10719 -7.39281,-16.5 -16.5,-16.5 l -182.000002,0 c -8.485801,0 -14.78406,-3.08178 -18.990234,-7.69336 -4.206175,-4.61157 -6.313922,-10.77617 -6.310547,-16.94726 0.0034,-6.17109 2.118146,-12.33551 6.326172,-16.94727 4.208026,-4.61176 10.502752,-7.69336 18.974609,-7.69336 l 182.000002,0 c 9.10719,0 16.5,-7.39281 16.5,-16.5 l 0,-11.63281 -1,0 z"
     id="path4"
     inkscape:connector-curvature="0" />
  <path
     style="opacity:1;fill:#ffb380;fill-opacity:1;fill-rule:nonzero;stroke:none;stroke-opacity:1"
     d="m 233.29074,468.06548 c -29.62128,-10.23636 -45.7413,-34.7271 -43.72281,-66.42693 l 0.90458,-14.20605 -11.15505,-11.51696 C 166.57608,362.76081 160.97627,349.3122 160.97627,331.86705 l 0,-11.44137 -54.77966,-0.64675 C 53.097615,319.15205 51.084145,318.96895 40.569492,313.81122 25.221526,306.28261 10.439693,290.36889 4.727816,275.22504 -2.0858772,257.15996 -0.70474175,232.50938 8.0191766,216.48067 18.763954,196.73898 38.140754,182.69228 59.226863,179.35901 c 6.816906,-1.07761 27.590554,-0.0246 58.485937,2.96469 26.35268,2.54974 48.28275,4.0392 48.73348,3.3099 0.45072,-0.7293 -16.94818,-5.52526 -38.66424,-10.65771 C 106.06599,169.84344 84.593297,163.77059 80.064955,161.48066 67.040579,154.89439 55.305029,142.95807 48.769697,129.64999 40.766054,113.35196 40.16069,86.184433 47.448207,70.344309 54.049339,55.996114 68.273221,41.450613 82.567578,34.430846 93.310251,29.155263 97.194216,28.440646 114.3322,28.586414 l 19.52543,0.166075 75.77449,29.541985 75.77449,29.541985 12.35927,-11.442503 c 20.14616,-18.651789 39.37519,-25.372453 59.62997,-20.841053 12.91069,2.88838 120.08376,62.120587 130.82498,72.304107 3.98451,3.77763 9.84214,11.74977 13.01695,17.71587 l 5.77239,10.84746 0,120.40678 0,120.40678 -5.79758,10.98513 c -6.55316,12.4168 -20.41133,25.91579 -31.25801,30.44782 -4.00852,1.67487 -37.05808,9.87832 -73.44343,18.22987 l -66.15515,15.18464 -42.92716,-0.0707 c -35.44852,-0.0584 -44.88027,-0.74576 -54.1381,-3.94505 l 0,-1e-4 z m 15.17839,-44.70604 c -17.65814,-7.68118 -14.82954,-29.93454 4.19155,-32.97612 16.28103,-2.60346 23.52624,-16.5498 16.55094,-31.85896 -3.5392,-7.76767 -10.80424,-10.10402 -31.4191,-10.10402 -16.68265,0 -18.94396,-0.50675 -23.76231,-5.32513 -6.77586,-6.77584 -6.96462,-16.26387 -0.44377,-22.30571 4.11668,-3.81425 8.22483,-4.63818 26.22429,-5.25952 20.27844,-0.70001 21.60393,-1.04036 26.57627,-6.82383 7.68079,-8.93379 7.21259,-21.55559 -1.10826,-29.87642 l -6.34157,-6.34159 -96.85189,0 c -67.058677,0 -98.309597,-0.74549 -101.590616,-2.42341 -13.109567,-6.7043 -16.684189,-24.81489 -7.098503,-35.96409 l 5.233449,-6.08708 101.26162,-1.08475 101.26162,-1.08474 5.23374,-6.08708 c 5.36173,-6.23592 7.60238,-23.20106 3.06426,-23.20106 -1.19322,0 -2.16949,4.27368 -2.16949,9.49707 0,6.18312 -1.25082,10.53605 -3.58459,12.47458 -2.87918,2.39156 -23.12804,3.19097 -102.89507,4.06225 -96.750602,1.05679 -99.46825,1.2026 -105.430883,5.65675 -3.366216,2.51461 -7.452019,8.07074 -9.079561,12.34696 -3.87006,10.16824 0.257022,24.08621 9.078704,30.61657 5.968143,4.418 8.618973,4.54808 105.14322,5.15944 112.16795,0.71044 106.76818,-0.17141 106.76818,17.43655 0,15.4033 -3.47841,17.73288 -26.47789,17.73288 -20.06389,0 -30.31479,3.07025 -32.92023,9.85991 -2.92874,7.63218 -1.31898,19.17908 3.36951,24.16976 4.19245,4.46264 6.71062,5.02118 22.63842,5.02118 18.01973,0 28.649,2.4108 31.6857,7.18657 0.90093,1.41687 1.653,7.15807 1.67127,12.75822 0.0367,11.20288 -4.93787,16.93657 -14.69383,16.93657 -11.71578,0 -20.81005,12.06096 -18.44055,24.45615 1.34311,7.02603 10.06863,14.63151 16.64661,14.50978 3.62959,-0.0673 3.15065,-0.71051 -2.29124,-3.07768 z"
     id="path3340"
     inkscape:connector-curvature="0" />
  <path
     style="opacity:1;fill:#ffb380;fill-opacity:1;fill-rule:nonzero;stroke:none;stroke-opacity:1"
     d="m 249.92542,469.94404 c -22.56611,-2.43443 -36.35011,-9.80903 -47.78264,-25.56427 -8.3788,-11.54684 -11.36082,-22.61623 -11.14257,-41.36157 l 0.19072,-16.37982 -10.61898,-11.228 c -12.67111,-13.39783 -16.85503,-22.59463 -18.76644,-41.25117 l -1.42843,-13.94226 -17.59871,-0.16705 c -9.67929,-0.0918 -35.20195,-0.85014 -56.717034,-1.68505 C 48.776313,316.91802 46.471754,316.57071 36.887543,310.95398 24.688592,303.80492 12.303375,289.99411 6.2833699,276.82712 0.01996692,263.12778 0.05626793,236.29509 6.3572615,222.20872 15.695479,201.33238 38.538895,183.4659 60.094915,180.17897 c 4.772882,-0.72778 26.23631,0.21863 47.696505,2.10313 44.54645,3.9118 61.43435,4.28748 53.74423,1.19557 -2.67539,-1.07568 -20.7364,-6.01069 -40.13559,-10.9667 C 79.685578,161.85395 73.607877,159.05955 60.545989,144.53159 47.206721,129.69511 43.032537,116.65318 44.242855,93.593615 45.341776,72.656453 50.488632,61.946706 66.579621,47.114552 81.760536,33.121272 91.30731,29.608925 114.31372,29.552731 l 19.50694,-0.04765 75.47018,29.424204 75.4702,29.424204 13.49744,-11.311094 c 18.24886,-15.292843 31.94592,-21.455548 47.74583,-21.482222 11.34034,-0.01909 15.42847,1.467856 42.30508,15.387912 43.36525,22.459937 93.31721,51.950241 100.61047,59.397741 3.48364,3.55732 8.73503,10.56507 11.66974,15.57276 l 5.33582,9.1049 0,121.80363 0,121.80363 -5.5199,9.419 c -6.02711,10.28447 -22.00207,26.03331 -29.73826,29.31731 -6.05672,2.57107 -25.27234,7.33484 -91.49906,22.68362 -51.17052,11.85935 -52.36003,12.02629 -83.52543,11.72267 -17.3886,-0.16941 -37.96141,-0.9926 -45.71735,-1.82931 z m -5.26926,-50.72903 c -4.26123,-4.01885 -7.74769,-9.17111 -7.74769,-11.44947 0,-6.94343 6.20826,-13.52177 15.34436,-16.25899 13.66201,-4.09325 19.36751,-10.68399 19.36751,-22.37245 0,-6.93129 -1.27434,-11.14064 -4.28379,-14.15009 -5.15547,-5.15548 -9.08375,-6.06595 -31.13746,-7.21682 -13.04122,-0.68055 -17.89581,-1.84001 -20.9258,-4.99783 -6.70184,-6.98462 -7.24009,-12.85138 -1.76322,-19.21864 4.52621,-5.26201 6.84384,-5.90681 26.36124,-7.33397 19.76983,-1.44564 21.79267,-2.02272 26.57388,-7.58122 7.07827,-8.22899 7.00097,-20.62768 -0.1818,-29.16397 l -5.357,-6.36644 -98.31924,-1.07108 C 90.764438,271.25163 62.925292,270.24443 59.285918,268.2967 52.953756,264.90782 47.516084,252.09346 49.231423,244.60238 c 0.723074,-3.15775 3.135171,-7.94247 5.360215,-10.63271 l 4.045533,-4.89134 101.807599,-1.42398 101.8076,-1.42397 4.68402,-6.83588 c 4.79507,-6.99806 6.53912,-22.83857 2.51446,-22.83857 -1.19322,0 -2.16949,3.23036 -2.16949,7.17857 0,11.6051 -4.13829,15.16835 -18.69152,16.09423 -7.02136,0.4467 -51.90973,1.52742 -99.75194,2.40159 -96.498973,1.76322 -94.990895,1.51965 -102.132394,16.49554 -7.285925,15.27873 1.869776,32.75991 18.87634,36.04096 5.334732,1.02923 43.869004,1.97528 85.631714,2.10232 82.64285,0.2514 111.06276,1.92211 114.09295,6.70711 3.17716,5.01708 2.20902,16.34578 -1.82176,21.31717 -3.23691,3.99227 -7.07313,4.93603 -26.02195,6.40176 -26.55973,2.05446 -30.92721,4.6992 -30.92721,18.72815 0,5.77308 1.55776,11.11426 4.23362,14.51607 3.81053,4.8443 6.30773,5.51841 24.98794,6.74547 11.41486,0.74982 22.57579,2.33813 24.80204,3.52957 5.02135,2.68735 7.54859,15.01418 4.64431,22.653 -2.18424,5.74499 -6.87075,8.59902 -18.05724,10.99657 -6.75571,1.44792 -14.55581,12.33085 -14.56865,20.3266 -0.009,5.79475 10.93052,17.73142 16.25066,17.73142 2.4953,0 1.23483,-2.20763 -4.17211,-7.30702 z"
     id="path3342"
     inkscape:connector-curvature="0" />
  <path
     style="opacity:1;fill:#ffb380;fill-opacity:1;fill-rule:nonzero;stroke:none;stroke-opacity:1"
     d="m 104.16374,225.30493 c 19.46498,-0.35992 50.70565,-0.35921 69.42373,0.002 18.71808,0.36079 2.79219,0.65527 -35.39086,0.6544 -38.18305,-8.7e-4 -53.497842,-0.29606 -34.03287,-0.65598 z"
     id="path3344"
     inkscape:connector-curvature="0" />
  <path
     style="opacity:1;fill:#ffb380;fill-opacity:1;fill-rule:nonzero;stroke:#ffb380;stroke-opacity:1"
     d="m 119.21356,225.31239 c 11.03729,-0.39374 29.0983,-0.39374 40.13559,0 11.03729,0.39375 2.00678,0.7159 -20.06779,0.7159 -22.07458,0 -31.10509,-0.32215 -20.0678,-0.7159 z"
     id="path3346"
     inkscape:connector-curvature="0" />
  <use
     id="use4148"
     xlink:href="#path3346"
     transform="matrix(1.4148536,0,0,1.4148536,-27.438378,-115.09773)"
     x="0"
     y="0"
     width="100%"
     height="100%" />
  <use
     id="use4150"
     xlink:href="#path3346"
     transform="matrix(0.4573926,0,0,0.4573926,140.19897,104.19105)"
     x="0"
     y="0"
     width="100%"
     height="100%" />
  <use
     id="use4152"
     xlink:href="#path3346"
     transform="matrix(0.83084853,0,0,0.83084853,89.22778,27.40816)"
     x="0"
     y="0"
     width="100%"
     height="100%" />
  <use
     id="use4154"
     xlink:href="#path3346"
     transform="matrix(0.83498696,0,0,0.83498696,86.745342,35.801568)"
     x="0"
     y="0"
     width="100%"
     height="100%" />
  <use
     id="use4156"
     xlink:href="#path3346"
     transform="matrix(1.4186541,0,0,1.4186541,4.7672012,-83.629199)"
     x="0"
     y="0"
     width="100%"
     height="100%" />
  <use
     id="use4158"
     xlink:href="#path3346"
     transform="matrix(0.45326937,0,0,0.45326937,142.44834,136.17945)"
     x="0"
     y="0"
     width="100%"
     height="100%" />
  <use
     id="use4160"
     xlink:href="#path3346"
     transform="matrix(0.71912765,0,0,0.71912765,133.11999,61.410668)"
     x="0"
     y="0"
     width="100%"
     height="100%" />
  <use
     id="use4162"
     xlink:href="#path3346"
     transform="matrix(0.80607605,0,0,0.80607605,133.59043,38.094659)"
     x="0"
     y="0"
     width="100%"
     height="100%" />
  <use
     id="use4164"
     xlink:href="#path3346"
     transform="matrix(1.0131502,0,0,1.0131502,206.42019,29.86304)"
     x="0"
     y="0"
     width="100%"
     height="100%" />
  <use
     id="use4166"
     xlink:href="#path3346"
     transform="matrix(0.790229,0,0,0.790229,264.58796,81.462685)"
     x="0"
     y="0"
     width="100%"
     height="100%" />
  <path
     style="opacity:1;fill:#ffb380;fill-opacity:1;fill-rule:nonzero;stroke:#ffb380;stroke-width:1;stroke-opacity:1"
     d="m 247.54057,469.83765 c -36.38808,-4.25323 -57.35587,-28.9305 -56.73225,-66.76897 l 0.26138,-15.86013 -10.93108,-12.07049 c -13.1287,-14.49717 -16.76831,-22.56484 -18.48806,-40.98128 l -1.30173,-13.93983 -24.09306,-0.16002 C 123.00459,319.96891 97.445704,319.1857 79.45825,318.31645 49.545687,316.8709 45.918718,316.24661 36.971702,311.00329 24.505518,303.69764 12.04307,289.9164 6.3061448,277.09266 -0.17657253,262.60189 0.08077668,236.43458 6.8585982,220.91908 13.361683,206.0325 31.059747,189.75242 47.627587,183.41653 l 12.467328,-4.76777 50.546245,3.78588 c 27.80043,2.08223 51.08542,3.24669 51.74441,2.5877 0.659,-0.659 -2.56139,-2.20158 -7.15641,-3.42796 -4.59502,-1.22638 -21.53424,-5.69009 -37.64272,-9.91936 C 79.56224,161.69178 73.827545,158.99866 61.220391,145.20442 47.214533,129.87978 42.996339,117.08199 44.275167,93.793443 45.452772,72.348279 49.889028,62.775378 65.352517,48.311094 81.581648,33.130644 90.82865,29.609944 114.62074,29.552731 l 19.81397,-0.04765 75.20878,29.277774 75.20877,29.277774 13.4341,-11.179971 c 17.99925,-14.979122 31.99477,-21.293735 47.25415,-21.320485 13.71581,-0.02404 29.516,6.904259 78.83683,34.569515 53.89794,30.232672 64.50293,37.632862 73.41249,51.227342 l 8.13559,12.41353 0,122.38178 c 0,108.16137 -0.40511,123.16516 -3.4863,129.12356 -4.50793,8.71734 -21.92443,27.32288 -28.98777,30.96676 -5.96702,3.07829 -38.31635,11.2564 -103.81794,26.24588 -40.32844,9.2288 -43.16865,9.58199 -74.84746,9.30768 -18.11057,-0.15685 -39.371,-1.03817 -47.24538,-1.95857 z m -3.89888,-50.98433 c -10.87477,-12.38568 -8.27275,-20.15912 9.35777,-27.95618 6.33251,-2.80053 13.11278,-7.37495 15.06727,-10.16537 5.11543,-7.30331 4.47276,-17.98394 -1.49992,-24.92761 -4.62876,-5.38125 -6.85642,-6.01144 -26.50168,-7.49726 -19.52564,-1.4768 -21.89236,-2.13865 -26.4041,-7.38382 -6.20745,-7.2166 -6.21655,-10.32067 -0.0512,-17.48828 4.42322,-5.1423 7.02915,-5.88407 26.54607,-7.55625 20.10229,-1.72231 21.9899,-2.28972 26.54214,-7.97824 6.26968,-7.83464 6.25441,-17.60607 -0.0421,-26.95576 l -4.96454,-7.37167 -98.62876,-1.22021 c -71.340474,-0.88259 -99.973107,-1.95083 -103.487663,-3.86091 -5.36355,-2.915 -11.412285,-13.11881 -11.412285,-19.25177 0,-2.16602 1.820897,-7.33991 4.046438,-11.49757 l 4.046436,-7.55937 31.207801,-1.70855 c 17.164293,-0.93971 63.378533,-1.91598 102.698313,-2.1695 l 71.49052,-0.46093 4.98406,-7.37168 c 5.00556,-7.40348 6.86935,-21.91646 2.81457,-21.91646 -1.19322,0 -2.16949,3.3088 -2.16949,7.35288 0,4.04408 -1.70848,9.40058 -3.79661,11.90333 -3.69662,4.4306 -5.96804,4.58436 -86.23729,5.83777 -45.34238,0.70802 -91.1884,2.08181 -101.880058,3.05287 -17.125599,1.55541 -20.019115,2.43954 -24.310079,7.42808 -6.985372,8.12098 -8.440836,18.71677 -3.888687,28.30972 7.119399,15.00301 6.329843,14.88757 112.722894,16.48148 52.50169,0.78652 97.41016,2.23607 99.79661,3.22117 5.9139,2.44124 7.52099,5.25939 7.56,13.25711 0.0623,12.77473 -5.13267,16.0719 -28.47345,18.07169 -28.60867,2.45114 -32.2391,4.81065 -32.2391,20.95317 0,13.11024 6.56914,17.24518 29.78684,18.7494 23.61526,1.52996 28.14731,3.54887 29.98764,13.35875 1.87171,9.97699 -2.7531,19.06553 -10.96595,21.55001 -12.31863,3.72652 -16.08005,6.37651 -19.61021,13.81572 -2.94343,6.20283 -3.09246,8.54211 -0.88391,13.87402 2.54709,6.14919 9.59433,12.74893 13.6134,12.74893 1.05134,0 -1.11843,-3.45092 -4.82171,-7.66871 z"
     id="path4168"
     inkscape:connector-curvature="0" />
  <path
     style="opacity:1;fill:#ffb380;fill-opacity:1;fill-rule:nonzero;stroke:#ffb380;stroke-width:1;stroke-opacity:1"
     d="m 246.34691,469.79213 c -34.73157,-4.52727 -55.5777,-28.8277 -55.51509,-64.71417 0.0286,-16.41091 -1.20414,-19.488 -12.97301,-32.38186 -10.71757,-11.74204 -14.55878,-20.87552 -16.20825,-38.53932 l -1.30173,-13.93983 -26.26255,-0.1388 C 119.64188,320.0018 94.055786,319.20263 77.228301,318.30222 49.746862,316.83174 45.643412,316.08526 36.911245,310.96786 24.500857,303.6949 12.033881,289.89585 6.3061448,277.09266 -0.17657253,262.60189 0.08077668,236.43458 6.8585982,220.91908 13.382521,205.9848 31.072059,189.73258 47.627587,183.46267 c 12.129517,-4.59369 13.554834,-4.655 52.602923,-2.26253 22.07457,1.35251 45.01695,2.84881 50.98305,3.32511 14.51946,1.15916 8.88563,-0.98603 -31.39825,-11.95547 C 79.843222,161.68523 74.105938,159.09274 62.476904,146.66036 46.723634,129.81884 44.908475,124.88725 44.908475,98.928814 c 0,-26.970338 2.93689,-34.241827 20.444042,-50.61772 C 81.825927,32.902149 90.701796,29.609641 115.9209,29.552731 l 21.11411,-0.04765 41.80114,16.369503 c 22.99062,9.003227 43.75368,17.272088 46.14012,18.375246 2.38644,1.103161 12.14915,5.062667 21.69492,8.798907 9.54576,3.73624 21.80033,8.556767 27.23239,10.712285 l 9.87646,3.919119 13.98794,-10.942759 c 19.59761,-15.331187 32.85615,-21.151247 48.24329,-21.177209 11.36579,-0.01909 15.49264,1.488102 43.38983,15.84753 41.63226,21.42925 84.77188,46.551127 95.09305,55.376347 4.66021,3.98479 11.41944,11.52738 15.02047,16.76131 l 6.54735,9.51623 -0.1011,123.0363 -0.1011,123.03629 -5.21775,8.81256 c -6.93513,11.71319 -22.19045,26.29434 -31.59795,30.20158 -4.17627,1.73455 -37.58861,10.07906 -74.24966,18.54338 l -66.65643,15.38966 -34.22492,-0.2751 c -18.8237,-0.15121 -40.22847,-1.05767 -47.56615,-2.01413 z m -5.32373,-53.95692 c -7.39765,-10.00583 -4.12998,-16.69587 12.69222,-25.98524 16.19928,-8.94542 20.15859,-16.64985 14.9556,-29.10232 -3.69959,-8.85439 -4.97013,-9.35992 -30.67778,-12.20638 -16.85174,-1.8659 -20.19384,-2.92999 -24.40678,-7.77088 -2.68475,-3.08493 -4.88136,-6.96448 -4.88136,-8.62124 0,-1.65675 2.19661,-5.5488 4.88136,-8.649 4.29063,-4.95458 7.37406,-5.89262 25.47936,-7.75133 17.45967,-1.79246 21.4206,-2.93721 25.99686,-7.51347 4.00718,-4.00718 5.34226,-7.55554 5.17944,-13.76567 -0.26578,-10.13586 -8.6488,-22.70214 -14.17981,-21.25576 -8.1019,2.1187 -192.214499,-2.47576 -196.763192,-4.91015 -10.77927,-5.76887 -13.494877,-21.60008 -5.736326,-33.44113 3.191766,-4.87126 4.933653,-5.18261 38.564566,-6.89308 19.372002,-0.98526 65.092612,-1.50935 101.601352,-1.16465 l 66.37955,0.62672 4.43728,-7.30225 c 5.44176,-8.9553 8.39498,-21.40396 5.07772,-21.40396 -1.28805,0 -2.34188,2.92882 -2.34188,6.50848 0,3.61582 -1.92844,8.43691 -4.33899,10.84746 -3.85243,3.85243 -7.56237,4.3866 -33.08474,4.76365 l -28.74577,0.42467 21.69492,1.44752 c 11.9322,0.79614 -2.22373,1.07891 -31.45763,0.62839 -67.425,-1.03907 -130.752965,1.74152 -135.867956,5.96567 -7.908859,6.53142 -11.124816,14.70025 -9.431925,23.95796 2.003113,10.95417 7.615512,16.77917 18.5995,19.30402 4.654703,1.06998 42.144451,2.55104 83.310551,3.2913 86.59122,1.55706 114.61877,3.40471 117.36272,7.73684 3.16681,4.99972 2.18334,16.3395 -1.83729,21.1845 -3.06823,3.69731 -8.30803,5.15401 -27.31186,7.59289 -12.93341,1.65981 -24.64865,4.15124 -26.03391,5.53648 -1.38525,1.38526 -2.51864,6.83594 -2.51864,12.11262 0,14.54444 4.46385,17.69771 29.28813,20.68929 11.3356,1.36604 22.27665,3.37249 24.31343,4.4588 2.03678,1.08629 4.32647,5.29712 5.08817,9.35739 2.03288,10.83613 -2.67585,18.89896 -13.35979,22.8762 -11.2423,4.18508 -14.90161,7.25775 -18.23909,15.31516 -2.40709,5.81126 -2.09456,7.17837 3.23992,14.17224 3.24721,4.25733 6.37954,7.26507 6.96071,6.68388 0.58118,-0.58118 -1.16871,-4.06671 -3.88864,-7.74562 z"
     id="path4170"
     inkscape:connector-curvature="0" />
  <path
     style="opacity:1;fill:#ffb380;fill-opacity:1;fill-rule:nonzero;stroke:#ffb380;stroke-width:1;stroke-opacity:1"
     d="m 241.67099,469.76701 c -13.41597,-2.64171 -28.0018,-10.50258 -35.64962,-19.21295 -10.27847,-11.70654 -14.74186,-24.15872 -16.20001,-45.19557 -1.27237,-18.35663 -1.61176,-19.32392 -10.46255,-29.81951 -12.68299,-15.03993 -16.4035,-23.26254 -18.04788,-39.88716 l -1.4194,-14.35013 -51.55051,-1.3522 C 77.267452,319.13444 52.845987,317.49291 46.860193,315.817 34.15437,312.25958 15.168135,295.15158 7.4222384,280.28045 2.4310663,270.69807 1.6724443,266.64591 1.6987186,249.70847 1.7194719,236.32995 2.8592952,227.61461 5.319327,222.0245 c 5.861637,-13.31984 23.958814,-30.69848 38.994184,-37.44596 14.659432,-6.57876 9.395007,-6.45492 89.544119,-2.10636 l 21.69491,1.17708 -34.41554,-9.83282 C 79.609403,161.95164 74.615873,159.6958 62.359081,147.26339 48.562549,133.26919 45.156855,124.9329 44.209499,102.83776 43.10607,77.102499 47.016867,65.834424 62.386538,50.464753 80.267253,32.584037 85.700222,30.589078 116.50169,30.593938 l 26.0339,0.0041 69.3659,27.65691 c 38.15124,15.211307 70.22073,27.656916 71.26551,27.656916 1.04479,0 9.44085,-5.682501 18.65793,-12.627783 27.47262,-20.701228 46.55078,-22.834738 76.109,-8.511269 22.96858,11.130225 80.81753,43.602678 97.88533,54.946158 9.07012,6.02812 17.27,13.76242 22.23729,20.97469 l 7.86887,11.42527 0,125.05151 0,125.05151 -8.30353,11.05096 c -15.52408,20.66058 -23.23061,24.87853 -63.28969,34.63959 -97.9981,23.8789 -99.87614,24.19203 -143.53761,23.93114 -21.88143,-0.13082 -43.98705,-1.06522 -49.1236,-2.07663 z m -1.25876,-52.93137 c -6.97982,-10.65255 -2.92604,-20.10979 11.3368,-26.44807 3.1733,-1.41019 4.50079,-2.64327 2.95001,-2.74018 -4.63603,-0.28971 -15.33153,6.07649 -17.72626,10.55109 -3.20796,5.99415 -2.75424,13.59811 1.14345,19.16285 4.62048,6.59667 6.65717,6.13034 2.296,-0.52569 z m 29.47252,-48.02494 c 0,-9.46051 -8.03337,-18.35757 -16.28369,-18.0344 -3.79552,0.14861 -3.4417,0.57964 1.74558,2.12625 3.57827,1.06687 7.72742,3.61023 9.22033,5.65192 3.36684,4.6044 3.50658,14.63567 0.29148,20.92375 -2.26591,4.43162 -2.18156,4.50874 1.30169,1.19007 2.25376,-2.14732 3.72461,-6.82986 3.72461,-11.85759 z m -29.15437,-19.71148 c -2.07423,-0.54301 -5.97931,-0.5627 -8.67797,-0.0438 -2.69865,0.51892 -1.00156,0.96321 3.77132,0.98729 4.77288,0.0241 6.98088,-0.40051 4.90665,-0.94351 l 0,5e-5 z m -26.61361,-7.20065 c -2.16631,-2.39376 -4.40928,-3.88177 -4.98438,-3.30668 -1.45775,1.45777 3.95329,7.65896 6.68305,7.65896 1.23206,0 0.46766,-1.95853 -1.69867,-4.35228 z m 5.61259,-23.48156 c 2.88579,-1.08379 12.95388,-2.68308 22.37353,-3.55398 21.48443,-1.98634 27.5257,-6.7088 27.0229,-21.12375 -0.24177,-6.93105 -0.53317,-7.65121 -1.13727,-2.81047 -2.26406,18.14275 -1.35693,17.52134 -31.93033,21.87382 -22.10055,3.14628 -27.4033,5.37678 -27.28411,11.47656 0.062,3.17321 0.35469,3.15494 2.88867,-0.18028 1.55082,-2.04121 5.18079,-4.59804 8.06661,-5.68184 l 0,-6e-5 z m 44.23749,-39.26906 c -4.00558,-3.92029 -9.05678,-4.26854 -79.12617,-5.45523 -41.1661,-0.69716 -86.074578,-1.65998 -99.796612,-2.13957 -20.202091,-0.70608 -22.472424,-0.51265 -11.932204,1.01658 7.159322,1.03873 51.641516,2.75922 98.849316,3.82332 56.17179,1.26616 87.28425,2.77721 90.03388,4.37267 6.18431,3.58843 6.78646,3.09441 1.97179,-1.61777 z M 53.779295,263.6437 c -6.852757,-8.14403 -7.252679,-17.60182 -1.185533,-28.03692 l 4.41483,-7.59322 -5.507686,6.08708 c -3.810262,4.21109 -5.505186,8.55712 -5.499576,14.10169 0.0085,8.35393 6.853656,22.11631 11.000313,22.11631 1.31683,0 -0.133228,-3.00372 -3.222348,-6.67494 z M 117.40565,225.547 c 1.77018,-1.54248 -40.108383,-0.50682 -48.632769,1.20269 -5.193098,1.04144 2.647856,1.30755 19.525424,0.66265 15.511865,-0.59271 28.610165,-1.43212 29.107345,-1.86534 z m 131.71084,-0.31787 c 11.89792,-0.74141 13.56743,-1.43116 15.91037,-6.57334 2.53833,-5.57102 2.49195,-5.6313 -1.5314,-1.99024 -3.11517,2.8192 -7.99373,3.75479 -19.57892,3.75479 -8.82762,0 -16.05743,1.01528 -16.89639,2.37275 -1.02116,1.65226 -15.71775,2.05407 -48.39923,1.32328 -26.10438,-0.58372 -39.71176,-0.33868 -30.6616,0.55216 16.90616,1.66412 78.01336,2.00278 101.15717,0.5606 z m 22.35136,-22.7071 c 0.0839,-0.89491 -0.82378,-1.62711 -2.017,-1.62711 -1.19322,0 -2.10087,2.68474 -2.017,5.9661 0.13516,5.28671 0.3648,5.472 2.017,1.62712 1.02549,-2.38645 1.93314,-5.07119 2.017,-5.96611 z"
     id="path4172"
     inkscape:connector-curvature="0" />
  <path
     style="opacity:1;fill:#ffb380;fill-opacity:1;fill-rule:nonzero;stroke:#ffb380;stroke-width:1;stroke-opacity:1"
     d="m 237.79124,469.02994 c -29.45921,-7.15166 -45.72414,-28.21664 -48.05603,-62.23819 -1.20456,-17.57423 -1.70551,-18.75765 -16.73631,-39.53671 -7.98108,-11.03332 -11.99049,-22.07093 -12.01053,-33.06411 -0.0244,-13.36674 -0.27303,-13.4292 -57.78259,-14.51397 C 54.72607,318.7625 50.125653,318.33452 40.931677,313.88381 25.896374,306.60534 7.7987233,285.8644 3.4597378,270.93881 -0.96677532,255.71213 0.2397056,233.97304 6.2653631,220.38539 11.889476,207.7032 28.623575,191.39538 42.9846,184.60153 c 13.070342,-6.18326 29.490046,-6.87057 76.61471,-3.20699 14.82912,1.15286 27.38151,1.67662 27.89421,1.16392 0.5127,-0.5127 -4.78632,-2.51815 -11.77559,-4.45655 -6.98927,-1.9384 -23.66448,-6.89769 -37.056025,-11.02064 C 76.481349,160.25238 73.343115,158.61446 63.412411,148.68376 46.32847,131.59982 44.908475,127.78162 44.908475,98.928814 c 0,-28.971625 1.753326,-33.644319 18.886026,-50.332089 16.522473,-16.09339 20.85567,-17.723309 49.682079,-18.687762 l 25.17827,-0.842396 72.003,28.491032 c 40.02774,15.838668 73.16443,27.785715 74.61833,26.902776 1.43844,-0.873542 8.47297,-5.917987 15.63229,-11.209882 18.75806,-13.865225 28.09768,-17.608305 44.0744,-17.663864 16.18228,-0.05628 28.02913,4.904366 77.89151,32.615503 51.12348,28.412008 66.51911,39.139848 75.42977,52.560288 l 7.75726,11.68325 -0.0926,124.5636 -0.0926,124.56361 -7.9814,11.60572 c -14.83536,21.57201 -20.68819,24.49926 -76.11648,38.06915 -82.43125,20.1807 -86.77548,20.85771 -132.49832,20.64909 -24.04959,-0.10978 -44.91736,-1.27165 -51.48858,-2.8669 l -1.1e-4,0 z m -1.61545,-64.74519 c -0.60183,-1.49153 -1.09427,-0.27119 -1.09427,2.71186 0,2.98305 0.49244,4.20339 1.09427,2.71186 0.60184,-1.49152 0.60184,-3.9322 0,-5.42372 z m 6.15641,-8.1356 c 2.15971,-2.38644 3.4386,-4.33898 2.84199,-4.33898 -0.59661,0 -2.85177,1.95254 -5.01148,4.33898 -2.15971,2.38644 -3.4386,4.33899 -2.84199,4.33899 0.59661,0 2.85178,-1.95255 5.01148,-4.33899 z m 26.6808,-27.39673 c -0.71532,-5.73531 -0.86656,-5.58405 -1.90323,1.90323 -0.64575,4.66385 -0.31425,7.32171 0.77705,6.23041 1.04678,-1.04678 1.55355,-4.70693 1.12618,-8.13364 z m -53.79944,-25.62777 c 0,-0.52618 -0.97627,-1.56008 -2.16949,-2.29753 -1.19322,-0.73745 -2.16949,-0.30694 -2.16949,0.9567 0,1.26364 0.97627,2.29754 2.16949,2.29754 1.19322,0 2.16949,-0.43052 2.16949,-0.95671 z m 4.41003,-26.845 c -2.73612,-0.93449 -10.91851,3.62355 -10.91851,6.08221 0,1.09575 2.90667,0.3292 6.45928,-1.70344 3.55258,-2.03264 5.55925,-4.00308 4.45923,-4.37877 z m 16.74251,-1.89718 c -2.08813,-0.54567 -5.50508,-0.54567 -7.59322,0 -2.08813,0.54569 -0.37966,0.99217 3.79661,0.99217 4.17627,0 5.88475,-0.44648 3.79661,-0.99217 z m 25.21184,-5.16005 c 1.83957,-1.99715 1.78249,-2.28302 -0.22936,-1.14851 -1.4732,0.83075 -6.84269,2.41152 -11.93221,3.51285 l -9.25366,2.00237 9.48302,-0.85387 c 5.21568,-0.46963 10.58517,-2.05041 11.93221,-3.51284 z m 7.18542,-13.27666 c -0.69255,-1.73067 -1.20663,-1.2166 -1.31072,1.31074 -0.0942,2.287 0.41854,3.56836 1.13946,2.84746 0.7209,-0.72092 0.79796,-2.59211 0.17117,-4.1582 l 9e-5,0 z m -5.49112,-17.49152 c -1.96859,-1.97183 -14.66762,-2.78481 -46.53559,-2.97911 l -43.82818,-0.26723 42.84616,1.53146 c 23.56539,0.84231 43.49759,2.18292 44.29379,2.97911 0.79618,0.7962 2.45643,1.44763 3.68944,1.44763 1.29441,0 1.09765,-1.14603 -0.46562,-2.71186 z m -115.75228,-5.40735 c -9.1908,-0.40565 -24.81114,-0.40791 -34.71186,-0.004 -9.90073,0.4029 -2.38098,0.73478 16.71054,0.73754 19.09153,0.002 27.19212,-0.3269 18.00132,-0.73255 l 0,-6.5e-4 z m -90.679282,-5.71685 c 0,-0.4505 -1.708475,-2.15897 -3.79661,-3.79661 -3.440935,-2.69857 -3.51767,-2.62183 -0.819103,0.81911 2.834157,3.61383 4.615713,4.76308 4.615713,2.9775 z m -7.96178,-21.96055 c 0.905947,-5.90963 0.668461,-7.63984 -0.744452,-5.42373 -1.141131,1.78983 -2.089733,6.1017 -2.108004,9.58193 -0.04406,8.39179 1.208446,6.56595 2.852456,-4.1582 z m 53.017582,-19.99083 c -3.259986,-0.49503 -9.117613,-0.50499 -13.016949,-0.0221 -3.899335,0.48283 -1.232073,0.88785 5.927249,0.90003 7.15932,0.0121 10.34969,-0.38288 7.0897,-0.8779 z m 160.36476,-3.97965 c 0.51063,-1.54546 -4.54597,-1.76952 -15.76032,-0.69833 -22.10336,2.11131 -23.43749,4.4171 -2.0921,3.61583 9.43382,-0.35413 17.43766,-1.66215 17.85242,-2.9175 z m 6.50212,-16.57189 c -0.69255,-1.73068 -1.20663,-1.2166 -1.31072,1.31073 -0.0942,2.28701 0.41854,3.56836 1.13946,2.84746 0.7209,-0.7209 0.79796,-2.59209 0.17117,-4.15819 l 9e-5,0 z"
     id="path4174"
     inkscape:connector-curvature="0" />
  <path
     style="opacity:1;fill:#ffb380;fill-opacity:1;fill-rule:nonzero;stroke:#ffb380;stroke-width:1;stroke-opacity:1"
     d="m 238.5019,469.72084 c -28.92019,-6.81353 -45.70839,-28.12312 -49.1644,-62.40538 -1.85664,-18.41716 -3.16002,-21.63211 -15.24077,-37.59353 -8.6246,-11.39506 -13.12046,-22.91298 -13.12046,-33.61322 0,-13.61991 -0.37889,-13.7237 -57.73921,-15.81713 C 63.350554,318.83589 48.998708,317.55227 42.531092,314.86206 32.10038,310.52338 15.073047,294.2308 7.3155204,281.1661 2.0531762,272.30362 1.5246481,269.4029 1.5837557,249.70847 1.6388625,231.34713 2.4149372,226.55907 6.6344576,218.5477 13.423817,205.65713 28.491342,191.49942 42.94894,184.42598 l 12.001486,-5.87178 43.792584,1.27381 43.79258,1.27381 -14.10169,-4.34118 C 120.67797,174.37298 106.45615,170.06296 96.829863,167.1828 70.833976,159.4049 53.998826,145.3483 46.919057,125.50949 42.396687,112.83698 43.049695,80.233439 48.046308,69.227804 53.895387,56.344515 68.338571,41.497631 81.31126,35.033068 c 9.905571,-4.936154 13.697753,-5.527983 35.4209,-5.527983 l 24.32769,0 62.56838,24.714975 c 85.86813,33.918547 78.24335,32.19852 93.46942,21.085195 20.72468,-15.126691 32.10874,-19.720901 48.92655,-19.745078 14.22737,-0.02039 15.97199,0.609575 49.89831,18.019684 69.19881,35.511049 99.46361,56.614659 108.38497,75.576729 3.02846,6.43692 3.2883,21.34005 2.28257,130.92477 l -1.13489,123.66101 -9.06968,11.8884 c -4.98832,6.53861 -12.93675,14.584 -17.66316,17.87861 -9.03422,6.29743 -42.51101,15.60819 -110.74627,30.80146 -33.93838,7.55673 -36.08715,7.76453 -78.1017,7.55259 -23.76174,-0.11997 -46.87935,-1.08403 -51.37245,-2.14259 z m 30.26146,-100.01237 c -0.69255,-1.73066 -1.20663,-1.2166 -1.31072,1.31075 -0.0942,2.28699 0.41854,3.56835 1.13946,2.84745 0.7209,-0.72092 0.79796,-2.5921 0.17117,-4.1582 l 9e-5,0 z m -10.70234,-92.20736 c -2.08814,-0.54567 -5.50509,-0.54567 -7.59322,0 -2.08814,0.5457 -0.37966,0.99218 3.79661,0.99218 4.17627,0 5.88474,-0.44648 3.79661,-0.99218 z m -26.00861,-2.16461 c -2.07422,-0.543 -5.97931,-0.5627 -8.67796,-0.0438 -2.69865,0.51892 -1.00157,0.96321 3.77131,0.98729 4.77288,0.0241 6.98088,-0.40051 4.90665,-0.94351 l 0,4e-5 z m 25.46623,-52.74667 c 3.27262,-1.40629 1.93966,-1.86452 -5.42372,-1.86452 -7.36339,0 -8.69635,0.45823 -5.42373,1.86452 2.38644,1.02549 4.82712,1.86452 5.42373,1.86452 0.59661,0 3.03728,-0.83903 5.42372,-1.86452 z"
     id="path4176"
     inkscape:connector-curvature="0" />
  <path
     style="opacity:1;fill:#ffb380;fill-opacity:1;fill-rule:nonzero;stroke:#ffb380;stroke-width:1;stroke-opacity:1"
     d="m 233.71362,468.46952 c -27.64181,-8.48006 -41.32788,-28.38977 -45.60815,-66.34806 -1.14887,-10.18837 -3.5553,-15.71654 -13.15967,-30.23102 -6.46453,-9.76944 -12.25226,-20.99935 -12.86161,-24.95536 -3.61251,-23.45279 -3.02988,-22.14332 -10.41103,-23.39896 -3.83244,-0.65195 -28.66559,-2.12126 -55.184781,-3.26513 C 41.785149,317.91145 38.889873,317.11004 21.215343,299.4355 4.6096364,282.8298 1.5186441,275.02616 1.5186441,249.70847 c 0,-17.20751 0.8845136,-23.48987 4.2762943,-30.37288 5.9554216,-12.08545 22.2631886,-27.82219 36.0954086,-34.83151 10.970598,-5.55922 13.234853,-5.88557 38.792008,-5.59113 14.927757,0.17198 33.975275,0.92216 42.327815,1.66706 8.35254,0.7449 14.63392,0.7561 13.95861,0.0249 -0.6753,-0.73122 -12.87869,-4.84003 -27.11864,-9.13069 C 95.61019,167.18355 79.906721,161.32438 74.953541,158.45384 63.011434,151.53297 49.539092,135.94226 46.375088,125.38176 43.23267,114.89331 43.058094,83.332007 46.082267,72.443184 49.122692,61.495845 67.56004,41.885589 81.205122,35.085959 91.280343,30.065264 94.905207,29.505085 117.31838,29.505085 l 24.91391,0 63.06691,24.728682 c 34.68679,13.600775 66.72894,25.725748 71.20475,26.944388 7.67707,2.090253 8.94581,1.662477 22.40781,-7.555171 21.3171,-14.596153 30.15136,-17.981516 47.06666,-18.036355 14.16143,-0.04591 15.97998,0.605536 49.89831,17.874688 72.04384,36.680363 103.67666,59.312583 110.09887,78.772103 2.10734,6.38526 2.47181,35.59447 1.61417,129.36005 l -1.10776,121.11252 -6.13094,8.84696 c -11.2758,16.271 -23.91745,25.41729 -43.043,31.14186 -17.83395,5.33797 -78.30814,20.04951 -107.1855,26.07501 -22.14563,4.62087 -101.03116,4.41737 -116.40895,-0.3003 z m 23.30394,-247.30274 c -1.46881,-0.59427 -4.39763,-0.63045 -6.50848,-0.0804 -2.11085,0.55006 -0.90908,1.03629 2.67058,1.0805 3.57966,0.0442 5.30671,-0.40584 3.8379,-1.00011 z"
     id="path4178"
     inkscape:connector-curvature="0" />
  <path
     style="opacity:1;fill:#ffb380;fill-opacity:1;fill-rule:nonzero;stroke:#ffb380;stroke-width:1;stroke-opacity:1"
     d="m 234.28844,469.12514 c -18.55815,-5.15113 -32.78054,-18.24605 -40.38056,-37.17938 -1.43691,-3.57966 -3.95989,-14.85986 -5.60664,-25.06713 -2.60102,-16.12236 -4.4402,-20.77392 -14.0101,-35.43352 -6.05882,-9.28119 -11.62906,-20.45523 -12.37832,-24.83118 -3.4127,-19.93164 -3.90951,-20.7893 -12.99537,-22.43469 -4.70324,-0.85172 -29.22336,-2.49899 -54.489147,-3.66062 C 41.813701,318.09961 38.757903,317.22628 21.09123,299.55961 4.2050078,282.6734 1.5179908,275.67944 1.5221244,248.62373 c 0.00276,-18.06854 0.8346897,-24.30598 4.0226208,-30.15983 6.1294368,-11.25521 23.3552898,-27.371 36.3683318,-34.0247 11.478509,-5.86908 12.270887,-5.96116 47.469974,-5.51618 19.688139,0.24889 37.749149,1.01089 40.135589,1.69334 2.80047,0.80084 3.56973,0.50446 2.1695,-0.83586 -1.19322,-1.14216 -12.42034,-5.26597 -24.94916,-9.164 C 76.889869,161.32967 70.254907,157.74324 58.277259,144.42121 46.162013,130.94614 43.851548,123.39641 43.835828,97.232013 43.821162,72.822159 46.348509,65.999892 61.238318,50.256115 77.783511,32.762014 85.913828,29.708113 116.86756,29.36072 l 25.66803,-0.288071 47.72882,18.906671 c 61.21357,24.248349 86.96309,33.593561 92.56274,33.593561 2.46567,0 9.06624,-3.364367 14.66791,-7.476369 18.42337,-13.523992 31.50796,-18.875414 46.35785,-18.959735 16.26348,-0.09236 28.97972,4.71688 66.90655,25.303795 59.43624,32.262338 80.43672,46.928478 90.96216,63.525388 l 6.3733,10.04963 0,121.46657 c 0,139.0953 1.19851,130.22226 -20.34129,150.5937 -13.70266,12.95941 -22.19173,15.97166 -93.55702,33.19784 l -47.72881,11.52078 -50.98305,0.58277 c -36.88683,0.42164 -53.80691,-0.20111 -61.19631,-2.25211 z"
     id="path4180"
     inkscape:connector-curvature="0" />
  <path
     style="opacity:1;fill:#ffb380;fill-opacity:1;fill-rule:nonzero;stroke:#ffb380;stroke-width:1;stroke-opacity:1"
     d=""
     id="path4182"
     inkscape:connector-curvature="0" />
  <path
     style="opacity:1;fill:#ffb380;fill-opacity:1;fill-rule:nonzero;stroke:#ffb380;stroke-width:1;stroke-opacity:1"
     d=""
     id="path4184"
     inkscape:connector-curvature="0" />
  <path
     style="opacity:1;fill:#ffb380;fill-opacity:1;fill-rule:nonzero;stroke:#ffb380;stroke-width:1;stroke-opacity:1"
     d="m 230.84466,467.97184 c -24.36831,-8.41693 -36.93,-25.92755 -42.57933,-59.35423 -2.70629,-16.01286 -4.91294,-21.75748 -14.07878,-36.65148 -6.62549,-10.76605 -11.87988,-22.41097 -13.45726,-29.82439 -1.42329,-6.68915 -3.72876,-13.41787 -5.12328,-14.95272 -1.76984,-1.94796 -18.31434,-3.71536 -54.78813,-5.8529 C 65.236871,319.2509 46.06147,317.22774 40.717872,314.99503 31.506814,311.14641 11.398866,291.70966 5.5821518,281.03211 2.3088171,275.02338 1.5186441,268.93232 1.5186441,249.70847 c 0,-22.0938 0.4401071,-24.61306 5.9318139,-33.95493 7.16163,-12.18255 22.275082,-25.88388 36.021054,-32.65545 9.502147,-4.68097 12.414989,-4.95799 48.08103,-4.57271 l 37.966098,0.41013 -21.69491,-7.10727 C 80.029765,162.72291 70.893518,157.87981 59.655235,146.29429 46.436454,132.66706 43.815272,124.72271 43.871375,98.456123 43.929832,71.087711 46.962154,63.420065 64.10117,47.302281 80.717991,31.675579 86.328528,29.730534 116.83887,29.019333 l 25.69672,-0.598994 58.57627,23.090556 c 32.21695,12.699806 64.13302,24.81951 70.92461,26.932675 l 12.34833,3.842115 16.9398,-11.082433 c 21.76146,-14.236869 26.92242,-16.130527 44.21867,-16.224703 12.48683,-0.06799 16.80722,1.131188 34.71186,9.634712 11.24747,5.341802 33.14148,16.811889 48.65334,25.489083 46.58517,26.059306 63.62193,38.695436 73.99928,54.885056 l 5.18717,8.09248 0,121.60432 c 0,104.7803 -0.46408,122.72024 -3.35428,129.67023 -4.85727,11.68011 -21.97829,28.38383 -35.21406,34.35572 -10.87054,4.90472 -93.25913,26.09046 -120.74537,31.04894 -7.08016,1.27724 -33.92761,2.2904 -59.66101,2.25143 -39.56982,-0.0599 -48.56023,-0.68295 -58.27554,-4.03868 z"
     id="path4186"
     inkscape:connector-curvature="0" />
  <path
     style="opacity:1;fill:#ffb380;fill-opacity:1;fill-rule:nonzero;stroke:#ffb380;stroke-width:1;stroke-opacity:1"
     d="m 229.92399,467.98616 c -24.32093,-9.77009 -35.30006,-25.15144 -42.61806,-59.70632 -3.46622,-16.36716 -6.72115,-25.0857 -13.64121,-36.53879 -4.9988,-8.27329 -10.29504,-19.58973 -11.76942,-25.14762 -3.89358,-14.67743 -5.3105,-17.57394 -9.76238,-19.95652 -2.19664,-1.17561 -21.85127,-3.09832 -43.67696,-4.27271 C 43.787759,318.8846 39.861463,317.97489 23.1913,302.60888 6.1848253,286.93285 1.7707676,277.11644 0.79408206,252.7998 0.08958894,235.25996 0.66704922,230.28171 4.3796654,221.88873 10.556132,207.9258 26.934311,191.20391 41.384053,184.10775 c 11.970144,-5.87844 12.883695,-5.98421 47.998998,-5.55689 39.556499,0.48135 40.041739,-0.0855 8.642308,-10.09524 C 71.39594,159.96647 57.65076,149.30821 47.872082,129.56587 44.047427,121.8442 43.156352,116.16239 43.108721,99.192984 43.038039,74.011288 46.87636,63.67636 61.866646,48.686076 77.753337,32.799382 87.594361,29.083853 116.40018,28.096657 l 24.47012,-0.838608 51.8157,20.400204 c 28.49863,11.220111 60.41844,23.434802 70.93291,27.143754 21.06732,7.431452 22.98496,7.183386 39.45906,-5.104421 19.36336,-14.442869 38.79818,-18.942972 57.73732,-13.368977 11.84888,3.487249 65.92241,31.70996 99.47594,51.919671 21.26349,12.80728 32.57069,22.47446 41.54678,35.52077 l 6.39293,9.2918 -0.61038,124.25601 c -0.68352,139.14574 0.39569,129.75842 -16.90694,147.06104 -12.08624,12.08624 -20.84586,15.89029 -59.79466,25.96708 -42.48888,10.99269 -42.01248,10.87354 -48.65455,12.17007 -2.98305,0.58229 -7.05421,1.54956 -9.04702,2.14947 -1.99283,0.5999 -5.65385,1.53784 -8.13559,2.08429 -2.48177,0.54645 -6.70892,1.61621 -9.39366,2.3772 -2.68475,0.76099 -29.77628,1.74128 -60.20339,2.17841 -50.37816,0.72376 -56.23702,0.42724 -65.56076,-3.31826 z"
     id="path4188"
     inkscape:connector-curvature="0" />
  <path
     style="opacity:1;fill:#ffb380;fill-opacity:1;fill-rule:nonzero;stroke:#ffb380;stroke-width:1;stroke-opacity:1"
     d="m 234.73898,470.13163 c -27.21081,-8.70363 -38.78408,-23.68878 -47.6451,-61.69127 -2.7139,-11.63919 -8.54852,-26.95456 -15.23282,-39.9849 -5.95873,-11.61593 -12.06581,-25.48352 -13.57129,-30.81686 -3.40679,-12.06904 -2.6898,-11.88793 -63.48299,-16.03446 C 63.048327,319.43797 46.468168,317.377 40.072487,314.80042 28.005569,309.93911 6.5938768,287.12118 3.0736176,275.37161 -0.15221586,264.60472 -0.35939558,235.29615 2.7121458,224.23621 6.0934279,212.06096 26.28206,191.47882 42.837784,183.32847 l 13.804249,-6.79581 30.472205,0.83684 c 16.759712,0.46027 30.472202,0.31147 30.472202,-0.33066 0,-0.64213 -8.05424,-3.96763 -17.898304,-7.38998 C 56.592985,154.66654 43.077756,137.51135 43.118755,97.844068 43.14499,72.460509 46.609807,63.48618 62.530263,47.565724 77.020297,33.075689 87.944159,29.084237 116.42347,27.873772 l 23.94263,-1.017641 45.55932,17.80057 c 72.90828,28.486135 90.26454,34.747275 96.29421,34.737401 3.11953,-0.0052 10.06512,-2.986396 15.43461,-6.625085 21.79417,-14.769032 30.51715,-18.172969 46.75749,-18.245989 14.28879,-0.06424 17.0128,0.764311 41.22034,12.537879 51.91853,25.251077 93.19298,50.523243 107.49487,65.818653 16.20736,17.33325 14.96798,5.52052 14.96798,142.66057 0,120.31334 -0.11803,123.8218 -4.46575,132.80308 -5.67235,11.71749 -18.91102,23.71088 -33.59178,30.43194 -6.30276,2.88551 -34.7318,11.2482 -63.17561,18.58378 l -51.71602,13.33738 -57.49152,0.58507 c -31.62034,0.3218 -59.93221,-0.19547 -62.91526,-1.14975 z"
     id="path4190"
     inkscape:connector-curvature="0" />
</svg>
